<svg viewBox="0 0 156 100"  xmlns="http://www.w3.org/2000/svg">
  
  <defs>
    <linearGradient id="bladeGradient" x1="0%" y1="0%" x2="100%" y2="0%">
      <stop offset="30%" style="stop-color:currentColor;stop-opacity:1" />
      <stop offset="100%" style="stop-color:#6366f1;stop-opacity:1" />
    </linearGradient>
  </defs>
  
  <path d="M 0,78 A 10,10 0 1,1 20,78 A 10,10 0 1,1 0,78 Z M 5,78 A 5,5 0 1,0 15,78 A 5,5 0 1,0 5,78 Z"
        fill="currentColor"/>
  
  <rect x="22" y="70" width="4" height="16" rx="2" fill="currentColor" />
  
  <rect x="30" y="74" width="4" height="8" rx="2" fill="#6366f1" />
  
  <rect x="38" y="74" width="4" height="8" rx="2" fill="currentColor" />
  
  <rect x="46" y="70" width="4" height="16" rx="2" fill="#6366f1" />
  
  <rect x="54" y="74" width="4" height="8" rx="2" fill="currentColor" />
  
  
  <polygon points="60,78 85,58 156,78 85,98" fill="url(#bladeGradient)"/>
</svg>